<svg width="200" height="60" viewBox="0 0 200 60" fill="none" xmlns="http://www.w3.org/2000/svg">
  <!-- B -->
  <path d="M19 10H31C35.4183 10 39 13.5817 39 18C39 20.7614 37.3679 23.1592 35 24.3381C38.3923 25.3109 41 28.4384 41 32.2C41 37.1705 36.9705 41.2 32 41.2H19V10Z" fill="#2a4fde"/>
  <path d="M27 20H31C32.1046 20 33 19.1046 33 18C33 16.8954 32.1046 16 31 16H27V20Z" fill="white"/>
  <path d="M27 35H32C33.6569 35 35 33.6569 35 32C35 30.3431 33.6569 29 32 29H27V35Z" fill="white"/>
  
  <!-- Gavel icon -->
  <path d="M64 18L70 12L76 18L70 24L64 18Z" fill="#f1d246"/>
  <rect x="63" y="20" width="15" height="4" rx="2" transform="rotate(-45 63 20)" fill="#f1d246"/>
  <rect x="60" y="30" width="5" height="12" rx="2.5" fill="#2a4fde"/>
  
  <!-- i -->
  <path d="M88 20H94V40H88V20Z" fill="#2a4fde"/>
  <circle cx="91" cy="15" r="3" fill="#2a4fde"/>
  
  <!-- d -->
  <path d="M102 10H108V40H102V35C100.5 38.5 96.5 40.5 93 40C87.5 39.2 83 34.6667 83 29C83 23.3333 87.5 18.8 93 18C96.5 17.5 100.5 19.5 102 23V10Z" fill="#2a4fde"/>
  <path d="M93 34C96.3137 34 99 31.7614 99 29C99 26.2386 96.3137 24 93 24C89.6863 24 87 26.2386 87 29C87 31.7614 89.6863 34 93 34Z" fill="white"/>
  
  <!-- V -->
  <path d="M120 14L130 40H124L117.5 22L111 40H105L115 14H120Z" fill="#2a4fde"/>
  
  <!-- i -->
  <path d="M133 20H139V40H133V20Z" fill="#2a4fde"/>
  <circle cx="136" cy="15" r="3" fill="#2a4fde"/>
  
  <!-- s -->
  <path d="M141 33.5C141 38 145 40.5 149.5 40.5C154 40.5 157.5 37.5 157.5 34C157.5 28 145.5 28.5 145.5 25C145.5 23.6 146.5 22.5 148.5 22.5C150.5 22.5 152 24 152 25.5H157.5C157.5 21 153.5 18 148.5 18C143.5 18 140 20.5 140 24.5C140 30.5 152 30 152 34C152 35.4 150.5 36 149 36C147.5 36 146 35 146 33.5H141Z" fill="#2a4fde"/>
  
  <!-- t -->
  <path d="M159 15H165V20H170V25H165V35C165 36 166 36.5 167 36.5H170V41H166C161.5 41 159 39 159 35V25H155V20H159V15Z" fill="#2a4fde"/>
  
  <!-- a -->
  <path d="M172 30C172 24.4772 176.477 20 182 20C187.523 20 192 24.4772 192 30V40H187V36.5C185.5 39 182.5 40.5 179.5 40.5C175.5 40.5 172 37.5 172 33.5C172 29.5 175.5 26.5 179.5 26.5C182.5 26.5 185.5 28 187 30.5V30C187 27.5 184.5 25 182 25C179.5 25 177 27.5 177 30H172Z" fill="#2a4fde"/>
  <path d="M180.5 36.5C183 36.5 186 34.5 186 32C186 29.5 183 27.5 180.5 27.5C178 27.5 176 29.5 176 32C176 34.5 178 36.5 180.5 36.5Z" fill="white"/>
  
  <!-- Tagline -->
  <text x="100" y="55" font-family="Arial, sans-serif" font-size="8" fill="#5f6e8c" text-anchor="middle">PROFESSIONAL VEHICLE AUCTIONS</text>
</svg>
